<svg width="37" height="33" fill="none" xmlns="http://www.w3.org/2000/svg"><g clip-path="url(#a)"><path d="M14.903 20.288c2.042-.98 3.109-2.462 3.109-4.77 0-4.55-3.379-5.658-7.278-5.658H0v22.842h11.036c4.137 0 8.023-1.992 8.023-6.632 0-2.868-1.356-4.989-4.156-5.782zM5.004 13.76H9.7c1.805 0 3.43.51 3.43 2.61 0 1.94-1.266 2.72-3.051 2.72H5.004v-5.33zm5.35 15.063h-5.35v-6.29h5.454c2.203 0 3.597.921 3.597 3.26 0 2.308-1.664 3.03-3.7 3.03zm23.03-15.514h-9.231v-2.25h9.23v2.25zM37 24.671c0-4.892-2.852-8.972-8.023-8.972-5.023 0-8.434 3.79-8.434 8.753 0 5.15 3.23 8.682 8.434 8.682 3.938 0 6.488-1.779 7.715-5.562h-3.996c-.43 1.411-2.203 2.159-3.578 2.159-2.653 0-4.047-1.56-4.047-4.209h11.89c.02-.27.039-.56.039-.85zm-11.922-2.01c.148-2.173 1.586-3.533 3.758-3.533 2.274 0 3.417 1.34 3.61 3.532h-7.368z" fill="#000"/></g><defs><clipPath id="a"><path fill="#fff" d="M0 0H37V33H0z"/></clipPath></defs></svg>