<svg width="33" height="33" fill="none" xmlns="http://www.w3.org/2000/svg"><path d="M15.984 1C7.171 1 0 8.17 0 16.984S7.17 32.97 15.984 32.97s15.985-7.17 15.985-15.985C31.969 8.171 24.799 1 15.984 1zm10.569 7.371a13.589 13.589 0 013.083 8.505c-.45-.095-4.964-1.01-9.507-.44-.37-.904-.72-1.7-1.2-2.681 5.048-2.062 7.336-4.994 7.624-5.384zm-1.518-1.579c-.246.35-2.3 3.113-7.156 4.932a72.871 72.871 0 00-5.094-7.992 13.618 13.618 0 0112.25 3.06zM10.18 4.65c.36.494 2.8 3.875 5.062 7.896C8.855 14.241 3.23 14.217 2.62 14.21c.885-4.237 3.74-7.758 7.56-9.56zM2.33 17.005c0-.14.003-.278.007-.417.598.012 7.214.098 14.032-1.943.39.765.764 1.541 1.107 2.317-4.937 1.39-9.423 5.384-11.636 9.172a13.598 13.598 0 01-3.51-9.129zm5.273 10.771c1.426-2.915 5.297-6.679 10.801-8.556 1.917 4.98 2.71 9.155 2.912 10.353a13.625 13.625 0 01-13.713-1.797zm16.009.547c-.14-.83-.867-4.827-2.652-9.734 4.278-.685 8.037.436 8.504.583a13.677 13.677 0 01-5.852 9.151z" fill="#000"/></svg>